# xmcd
#
# Track frame offsets: 
#        150
#        12758
#        25778
#        36173
#        48405
#        61562
#        73784
#        87319
#        100812
#        114975
#        126521
#        140136
#        152499
#        165035
#        177170
#        188501
#        203004
#        216524
#        230072
#        246390
#
# Disc length: 3459 seconds
#
# Revision: 3
# Processed by: cddbd v1.5.2PL0 Copyright (c) Steve Scherf et al.
# Submitted via: ExactAudioCopy v0.99pb4
#
DISCID=0d0d8114
DTITLE=Various Artist - blues selection vol. 9
DYEAR=2003
DGENRE=Blues
TTITLE0=john lee hooker - weeping willow boogie
TTITLE1=muddy waters - louisiana blues
TTITLE2=lightnin hopkins - lightnin's boogie
TTITLE3=t bone walker - no worry blues
TTITLE4=arthur "big boy" crudup - crudup's after hours
TTITLE5=lightnin hopkins - rollin' an' rollin'
TTITLE6=john lee hooker - crawlin king snake
TTITLE7=lonnie johnson - backwater blues
TTITLE8=muddy waters - i feel like goin' home
TTITLE9=lightnin hopkins - honey babe
TTITLE10=john lee hooker - hobo blues
TTITLE11=t bone walker - i'm in an awful mood
TTITLE12=john lee hooker - huckle up baby
TTITLE13=bb king - miss martha king
TTITLE14=big joe turner - story to tell
TTITLE15=big bill broonzy - treat everybody right
TTITLE16=john lee hooker - john l's house rent boogie
TTITLE17=big bill broonzy - see see rider
TTITLE18=bb king - the other night blues
TTITLE19=sonny terry and brownie mcghee - lonesome room
EXTD=
EXTT0=
EXTT1=
EXTT2=
EXTT3=
EXTT4=
EXTT5=
EXTT6=
EXTT7=
EXTT8=
EXTT9=
EXTT10=
EXTT11=
EXTT12=
EXTT13=
EXTT14=
EXTT15=
EXTT16=
EXTT17=
EXTT18=
EXTT19=
PLAYORDER=
